<svg width="505" height="240" viewBox="0 0 505 240" fill="none" xmlns="http://www.w3.org/2000/svg">
<g opacity="0.35">
<rect x="298.15" y="95.9995" width="80" height="89.3333" transform="rotate(90 298.15 95.9995)" fill="black" fill-opacity="0.58"/>
<rect x="208.817" width="96" height="107.2" transform="rotate(90 208.817 0)" fill="black" fill-opacity="0.58"/>
<rect x="51.3667" width="46" height="51.3666" transform="rotate(90 51.3667 0)" fill="black" fill-opacity="0.58"/>
<rect x="173.083" y="176" width="64" height="71.4666" transform="rotate(90 173.083 176)" fill="black" fill-opacity="0.58"/>
<rect width="80.3999" height="72" transform="matrix(-1 0 0 1 425.45 168)" fill="black" fill-opacity="0.58"/>
<rect width="22.3332" height="20" transform="matrix(-1 0 0 1 320.483 220)" fill="black" fill-opacity="0.58"/>
<rect width="33.5" height="30" transform="matrix(-1 0 0 1 504.733 121)" fill="black" fill-opacity="0.58"/>
<rect width="46.8998" height="42" transform="matrix(-1 0 0 1 452.249 0)" fill="black" fill-opacity="0.58"/>
<rect width="22.3333" height="20" transform="matrix(-1 0 0 1 367.383 0)" fill="black" fill-opacity="0.58"/>
<rect width="60.2999" height="54" transform="matrix(-1 0 0 1 405.35 42.0005)" fill="black" fill-opacity="0.58"/>
</g>
</svg>
