<svg width="84" height="127" viewBox="0 0 84 127" fill="none" xmlns="http://www.w3.org/2000/svg">
<g clip-path="url(#clip0_727_1829)">
<path d="M15.471 64.8026C15.471 66.7378 13.8431 68.3024 11.8296 68.3024C9.81618 68.3024 8.18115 66.7378 8.18115 64.8026C8.18115 62.8674 9.80904 61.3027 11.8225 61.3027C13.8359 61.3027 15.471 62.8674 15.471 64.8026Z" fill="#19212C"/>
<path d="M34.4056 68.3024C36.4166 68.3024 38.0469 66.7355 38.0469 64.8026C38.0469 62.8697 36.4166 61.3027 34.4056 61.3027C32.3945 61.3027 30.7642 62.8697 30.7642 64.8026C30.7642 66.7355 32.3945 68.3024 34.4056 68.3024Z" fill="#19212C"/>
<path d="M56.9896 68.3024C59.0007 68.3024 60.6309 66.7355 60.6309 64.8026C60.6309 62.8697 59.0007 61.3027 56.9896 61.3027C54.9785 61.3027 53.3483 62.8697 53.3483 64.8026C53.3483 66.7355 54.9785 68.3024 56.9896 68.3024Z" fill="#19212C"/>
<path d="M83.2069 64.8026C83.2069 66.7378 81.579 68.3024 79.5656 68.3024C77.5521 68.3024 75.9243 66.7378 75.9243 64.8026C75.9243 62.8674 77.5521 61.3027 79.5656 61.3027C81.579 61.3027 83.2069 62.8674 83.2069 64.8026Z" fill="#19212C"/>
<path d="M15.471 84.2371C15.471 86.1724 13.8431 87.737 11.8296 87.737C9.81618 87.737 8.18115 86.1724 8.18115 84.2371C8.18115 82.3019 9.80904 80.7373 11.8225 80.7373C13.8359 80.7373 15.471 82.3019 15.471 84.2371Z" fill="#19212C"/>
<path d="M34.4056 87.737C36.4166 87.737 38.0469 86.1701 38.0469 84.2371C38.0469 82.3042 36.4166 80.7373 34.4056 80.7373C32.3945 80.7373 30.7642 82.3042 30.7642 84.2371C30.7642 86.1701 32.3945 87.737 34.4056 87.737Z" fill="#19212C"/>
<path d="M56.9896 87.737C59.0007 87.737 60.6309 86.1701 60.6309 84.2371C60.6309 82.3042 59.0007 80.7373 56.9896 80.7373C54.9785 80.7373 53.3483 82.3042 53.3483 84.2371C53.3483 86.1701 54.9785 87.737 56.9896 87.737Z" fill="#19212C"/>
<path d="M83.2069 84.2371C83.2069 86.1724 81.579 87.737 79.5656 87.737C77.5521 87.737 75.9243 86.1724 75.9243 84.2371C75.9243 82.3019 77.5521 80.7373 79.5656 80.7373C81.579 80.7373 83.2069 82.3019 83.2069 84.2371Z" fill="#19212C"/>
<path d="M15.471 103.672C15.471 105.607 13.8431 107.172 11.8296 107.172C9.81618 107.172 8.18115 105.607 8.18115 103.672C8.18115 101.737 9.80904 100.172 11.8225 100.172C13.8359 100.172 15.471 101.737 15.471 103.672Z" fill="#19212C"/>
<path d="M34.4056 107.172C36.4166 107.172 38.0469 105.605 38.0469 103.672C38.0469 101.739 36.4166 100.172 34.4056 100.172C32.3945 100.172 30.7642 101.739 30.7642 103.672C30.7642 105.605 32.3945 107.172 34.4056 107.172Z" fill="#19212C"/>
<path d="M56.9896 107.172C59.0007 107.172 60.6309 105.605 60.6309 103.672C60.6309 101.739 59.0007 100.172 56.9896 100.172C54.9785 100.172 53.3483 101.739 53.3483 103.672C53.3483 105.605 54.9785 107.172 56.9896 107.172Z" fill="#19212C"/>
<path d="M83.2069 103.672C83.2069 105.607 81.579 107.172 79.5656 107.172C77.5521 107.172 75.9243 105.607 75.9243 103.672C75.9243 101.737 77.5521 100.172 79.5656 100.172C81.579 100.172 83.2069 101.737 83.2069 103.672Z" fill="#19212C"/>
<path d="M15.471 123.105C15.471 125.041 13.8431 126.605 11.8296 126.605C9.81618 126.605 8.18115 125.034 8.18115 123.105C8.18115 121.177 9.80904 119.605 11.8225 119.605C13.8359 119.605 15.471 121.17 15.471 123.105Z" fill="#19212C"/>
<path d="M34.4056 126.605C36.4166 126.605 38.0469 125.038 38.0469 123.105C38.0469 121.172 36.4166 119.605 34.4056 119.605C32.3945 119.605 30.7642 121.172 30.7642 123.105C30.7642 125.038 32.3945 126.605 34.4056 126.605Z" fill="#19212C"/>
<path d="M56.9896 126.605C59.0007 126.605 60.6309 125.038 60.6309 123.105C60.6309 121.172 59.0007 119.605 56.9896 119.605C54.9785 119.605 53.3483 121.172 53.3483 123.105C53.3483 125.038 54.9785 126.605 56.9896 126.605Z" fill="#19212C"/>
<path d="M83.2069 123.105C83.2069 125.041 81.579 126.605 79.5656 126.605C77.5521 126.605 75.9243 125.041 75.9243 123.105C75.9243 121.17 77.5521 119.605 79.5656 119.605C81.579 119.605 83.2069 121.17 83.2069 123.105Z" fill="#19212C"/>
</g>
<g clip-path="url(#clip1_727_1829)">
<path d="M15.471 3.93441C15.471 5.86962 13.8431 7.43425 11.8296 7.43425C9.81618 7.43425 8.18115 5.86962 8.18115 3.93441C8.18115 1.9992 9.80904 0.43457 11.8225 0.43457C13.8359 0.43457 15.471 1.9992 15.471 3.93441Z" fill="#19212C"/>
<path d="M34.4056 7.43425C36.4166 7.43425 38.0469 5.86732 38.0469 3.93441C38.0469 2.0015 36.4166 0.43457 34.4056 0.43457C32.3945 0.43457 30.7642 2.0015 30.7642 3.93441C30.7642 5.86732 32.3945 7.43425 34.4056 7.43425Z" fill="#19212C"/>
<path d="M56.9896 7.43425C59.0007 7.43425 60.6309 5.86732 60.6309 3.93441C60.6309 2.0015 59.0007 0.43457 56.9896 0.43457C54.9785 0.43457 53.3483 2.0015 53.3483 3.93441C53.3483 5.86732 54.9785 7.43425 56.9896 7.43425Z" fill="#19212C"/>
<path d="M83.2069 3.93441C83.2069 5.86962 81.579 7.43425 79.5656 7.43425C77.5521 7.43425 75.9243 5.86962 75.9243 3.93441C75.9243 1.9992 77.5521 0.43457 79.5656 0.43457C81.579 0.43457 83.2069 1.9992 83.2069 3.93441Z" fill="#19212C"/>
<path d="M15.471 23.369C15.471 25.3042 13.8431 26.8688 11.8296 26.8688C9.81618 26.8688 8.18115 25.3042 8.18115 23.369C8.18115 21.4338 9.80904 19.8691 11.8225 19.8691C13.8359 19.8691 15.471 21.4338 15.471 23.369Z" fill="#19212C"/>
<path d="M34.4056 26.8688C36.4166 26.8688 38.0469 25.3019 38.0469 23.369C38.0469 21.4361 36.4166 19.8691 34.4056 19.8691C32.3945 19.8691 30.7642 21.4361 30.7642 23.369C30.7642 25.3019 32.3945 26.8688 34.4056 26.8688Z" fill="#19212C"/>
<path d="M56.9896 26.8688C59.0007 26.8688 60.6309 25.3019 60.6309 23.369C60.6309 21.4361 59.0007 19.8691 56.9896 19.8691C54.9785 19.8691 53.3483 21.4361 53.3483 23.369C53.3483 25.3019 54.9785 26.8688 56.9896 26.8688Z" fill="#19212C"/>
<path d="M83.2069 23.369C83.2069 25.3042 81.579 26.8688 79.5656 26.8688C77.5521 26.8688 75.9243 25.3042 75.9243 23.369C75.9243 21.4338 77.5521 19.8691 79.5656 19.8691C81.579 19.8691 83.2069 21.4338 83.2069 23.369Z" fill="#19212C"/>
<path d="M15.471 42.8026C15.471 44.7378 13.8431 46.3024 11.8296 46.3024C9.81618 46.3024 8.18115 44.7309 8.18115 42.8026C8.18115 40.8742 9.80904 39.3027 11.8225 39.3027C13.8359 39.3027 15.471 40.8674 15.471 42.8026Z" fill="#19212C"/>
<path d="M34.4056 46.3024C36.4166 46.3024 38.0469 44.7355 38.0469 42.8026C38.0469 40.8697 36.4166 39.3027 34.4056 39.3027C32.3945 39.3027 30.7642 40.8697 30.7642 42.8026C30.7642 44.7355 32.3945 46.3024 34.4056 46.3024Z" fill="#19212C"/>
<path d="M56.9896 46.3024C59.0007 46.3024 60.6309 44.7355 60.6309 42.8026C60.6309 40.8697 59.0007 39.3027 56.9896 39.3027C54.9785 39.3027 53.3483 40.8697 53.3483 42.8026C53.3483 44.7355 54.9785 46.3024 56.9896 46.3024Z" fill="#19212C"/>
<path d="M83.2069 42.8026C83.2069 44.7378 81.579 46.3024 79.5656 46.3024C77.5521 46.3024 75.9243 44.7378 75.9243 42.8026C75.9243 40.8674 77.5521 39.3027 79.5656 39.3027C81.579 39.3027 83.2069 40.8674 83.2069 42.8026Z" fill="#19212C"/>
</g>
<defs>
<clipPath id="clip0_727_1829">
<rect width="75.0258" height="65.3029" fill="white" transform="translate(8.18115 61.3027)"/>
</clipPath>
<clipPath id="clip1_727_1829">
<rect width="75.0258" height="65.3029" fill="white" transform="translate(8.18115 -19)"/>
</clipPath>
</defs>
</svg>
