<svg width="31" height="28" viewBox="0 0 31 28" fill="none" xmlns="http://www.w3.org/2000/svg">
<path d="M12.2903 8.75C12.2903 9.00959 12.2099 9.26335 12.0593 9.47919C11.9086 9.69503 11.6945 9.86325 11.444 9.96259C11.1936 10.0619 10.9179 10.0879 10.652 10.0373C10.3861 9.98664 10.1418 9.86163 9.95012 9.67808C9.7584 9.49452 9.62784 9.26066 9.57495 9.00606C9.52206 8.75146 9.5492 8.48756 9.65296 8.24773C9.75671 8.0079 9.93242 7.80292 10.1578 7.6587C10.3833 7.51448 10.6483 7.4375 10.9194 7.4375C11.283 7.4375 11.6317 7.57578 11.8888 7.82192C12.1459 8.06806 12.2903 8.4019 12.2903 8.75V8.75ZM26.9125 4.8125V23.1875C26.9125 23.6516 26.7199 24.0967 26.3772 24.4249C26.0344 24.7531 25.5695 24.9375 25.0847 24.9375H5.89305C5.4083 24.9375 4.9434 24.7531 4.60062 24.4249C4.25785 24.0967 4.06528 23.6516 4.06528 23.1875V4.8125C4.06528 4.34837 4.25785 3.90325 4.60062 3.57506C4.9434 3.24687 5.4083 3.0625 5.89305 3.0625H25.0847C25.5695 3.0625 26.0344 3.24687 26.3772 3.57506C26.7199 3.90325 26.9125 4.34837 26.9125 4.8125ZM25.0847 23.1875V4.8125H5.89305V23.1875H25.0847ZM10.9194 11.375C10.6771 11.375 10.4446 11.4672 10.2732 11.6313C10.1018 11.7954 10.0056 12.0179 10.0056 12.25V19.25C10.0056 19.4821 10.1018 19.7046 10.2732 19.8687C10.4446 20.0328 10.6771 20.125 10.9194 20.125C11.1618 20.125 11.3943 20.0328 11.5657 19.8687C11.737 19.7046 11.8333 19.4821 11.8333 19.25V12.25C11.8333 12.0179 11.737 11.7954 11.5657 11.6313C11.3943 11.4672 11.1618 11.375 10.9194 11.375ZM17.7736 11.375C16.9509 11.375 16.1471 11.6112 15.466 12.0531C15.4161 11.8432 15.287 11.6582 15.1035 11.5337C14.92 11.4092 14.695 11.3538 14.4716 11.3782C14.2481 11.4025 14.0419 11.505 13.8923 11.6658C13.7428 11.8267 13.6605 12.0347 13.6611 12.25V19.25C13.6611 19.4821 13.7574 19.7046 13.9288 19.8687C14.1002 20.0328 14.3326 20.125 14.575 20.125C14.8174 20.125 15.0498 20.0328 15.2212 19.8687C15.3926 19.7046 15.4889 19.4821 15.4889 19.25V15.3125C15.4889 14.7323 15.7296 14.1759 16.1581 13.7657C16.5865 13.3555 17.1677 13.125 17.7736 13.125C18.3796 13.125 18.9607 13.3555 19.3892 13.7657C19.8176 14.1759 20.0583 14.7323 20.0583 15.3125V19.25C20.0583 19.4821 20.1546 19.7046 20.326 19.8687C20.4974 20.0328 20.7298 20.125 20.9722 20.125C21.2146 20.125 21.4471 20.0328 21.6184 19.8687C21.7898 19.7046 21.8861 19.4821 21.8861 19.25V15.3125C21.8861 14.2682 21.4528 13.2667 20.6816 12.5283C19.9103 11.7898 18.8643 11.375 17.7736 11.375V11.375Z" fill="white"/>
</svg>
