<svg width="24" height="22" viewBox="0 0 24 22" fill="none" xmlns="http://www.w3.org/2000/svg">
<g clip-path="url(#clip0_180_2)">
<path d="M21.2669 1H2.28906C1.73678 1 1.28906 1.44772 1.28906 2V20C1.28906 20.5523 1.73678 21 2.28906 21H21.2669C21.8191 21 22.2669 20.5523 22.2669 20V2C22.2669 1.44772 21.8191 1 21.2669 1Z" stroke="white" stroke-width="2"/>
<path d="M17.6691 8.73842C17.677 8.85776 17.677 8.97711 17.677 9.09755C17.677 12.7675 14.9941 17 10.0883 17V16.9978C8.63908 17 7.21999 16.5677 6 15.7527C6.21073 15.7791 6.42251 15.7923 6.63482 15.7928C7.83579 15.7939 9.00244 15.3743 9.94727 14.6016C8.80597 14.5791 7.80516 13.8042 7.45554 12.6729C7.85533 12.7532 8.26728 12.7367 8.65968 12.625C7.4154 12.3632 6.52021 11.2248 6.52021 9.9027V9.8675C6.89096 10.0825 7.30607 10.2019 7.73069 10.2151C6.55876 9.39948 6.19752 7.77598 6.90522 6.50666C8.25935 8.2418 10.2573 9.29664 12.402 9.40828C12.1871 8.44364 12.4807 7.4328 13.1736 6.7547C14.2479 5.70316 15.9374 5.75706 16.9471 6.87514C17.5445 6.7525 18.117 6.52426 18.6409 6.20088C18.4418 6.84379 18.0251 7.38991 17.4684 7.73693C17.9971 7.67204 18.5136 7.52465 19 7.29971C18.6419 7.85848 18.1909 8.3452 17.6691 8.73842Z" fill="white"/>
</g>
<defs>
<clipPath id="clip0_180_2">
<rect width="24" height="22" fill="white"/>
</clipPath>
</defs>
</svg>
